<svg xmlns="http://www.w3.org/2000/svg" xmlns:xlink="http://www.w3.org/1999/xlink" id="Capa_1" x="0" y="0" enable-background="new 0 0 448 512" focusable="false" version="1.1" viewBox="0 0 448 512" xml:space="preserve"><style type="text/css">.st0{fill:#fff}</style><path d="M432,32H312l-9.4-18.7C298.5,5.1,290.2,0,281.1,0H166.8c-9.1,0-17.4,5.1-21.4,13.3L136,32H16	C7.2,32,0,39.2,0,48v32c0,8.8,7.2,16,16,16h416c8.8,0,16-7.2,16-16V48C448,39.2,440.8,32,432,32z M53.2,467	c1.6,25.3,22.6,45,47.9,45h245.8c25.3,0,46.3-19.7,47.9-45L416,128H32L53.2,467z" class="st0"/></svg>